#tb 0: 1/1
#media_type 0: video
#codec_id 0: rawvideo
#dimensions 0: 72x36
#sar 0: 0/1
0,          0,          0,        1,    10368, 0xb4490cc8
0,          1,          1,        1,    10368, 0x37198e4f
0,          2,          2,        1,    10368, 0x1e89afe7
0,          3,          3,        1,    10368, 0x80127365
0,          4,          4,        1,    10368, 0xfd2d07d1
